<?xml version="1.0" encoding="UTF-8"?>
<svg xmlns="http://www.w3.org/2000/svg" version="1.1" viewBox="0 0 960 409.5">
  <defs>
    <style>
      .cls-1 {
        fill: #fff;
      }
    </style>
  </defs>
  <!-- Generator: Adobe Illustrator 28.6.0, SVG Export Plug-In . SVG Version: 1.2.0 Build 709)  -->
  <g>
    <g id="_レイヤー_1" data-name="レイヤー_1">
      <g id="layer">
        <g>
          <path class="cls-1" d="M121.5,238.3l38.3-8.3v-21.6h0v-21.6l-38.3-8.4v59.9h0ZM94.7,283.4l-52.8,29.5v-57.2l52.8-11.6v-71.6l-52.8-11.5v-57.2l52.8,29.5v-58l26.8,28.4v44.6l38.3,21.4v-25.4l14.1,15v18.3l36.4,20.3-36.4-7.9v36.9l36.4-7.9-36.4,20.3v18.3l-14.1,15v-25.4l-38.3,21.4v44.6l-26.8,28.4v-58.2Z"/>
          <path class="cls-1" d="M255.6,286.6h-3.5v-8.5c1.3,0,2.2-.2,3.1-.2,4.4,0,6.5,1.1,6.5,4.2s-2.1,4.5-6,4.5M260.2,289c3-.9,5.3-3.5,5.3-7.1s-3.7-7.1-10.4-7.1-6,.2-8.3.2v.6c.8,0,1.3.5,1.3,1.6v19.7c0,1.3-.4,1.6-1.3,1.6v.6h6.6v-.6c-.8,0-1.3-.4-1.3-1.6v-7.2h4.4c.7,2.4,2.4,6.5,4.2,9.5h5.6v-.6c-.6,0-1.1-.2-1.5-.9-1.4-2.1-3-5-4.4-8.8h-.2Z"/>
          <path class="cls-1" d="M270.4,291.6v-.7c0-2.8,1.8-5.2,4.4-5.2s3.4,1.1,3.7,3.3l-8.1,2.6h0ZM274.8,282.7c-4.3,0-8,3.4-8,8.7s3.8,8.4,8.8,8.4,3.9-.7,5-1.1l.7-3.9-.5-.2c-.7,1.3-2.5,2.2-4.6,2.2s-4.4-.8-5.2-2.7l11.2-3.5c-.3-4.1-2-7.9-7.3-7.9h-.1Z"/>
          <path class="cls-1" d="M294.6,293c0,1.8-1.1,4-4.4,4s-2.7-.7-2.7-2,1.1-2.1,3.3-2.7l3.9-1v1.7h0ZM298.1,297v-7.9c0-4.3-2.3-6.4-6.6-6.4s-4.1.4-5.2.7l-.8,3.9.6.2c.6-.7,2-1.8,4.8-1.8s3.8.8,3.8,2.7v.3l-4.3,1.1c-4.6,1.1-6.5,2.8-6.5,5.7s2,4.3,5.7,4.3,4.2-1.1,5.2-2.3c0,.7.3,1.5.4,1.8l4.4-.2v-.6c-.7,0-1.4-.4-1.4-1.6v.2h-.1Z"/>
          <path class="cls-1" d="M306.3,297v-22.5l-5,.6v.6c.8,0,1.4.2,1.4,1.6v19.7c0,1.1-.7,1.6-1.4,1.6v.6h6.5v-.6c-.7,0-1.5-.4-1.5-1.6h0Z"/>
          <path class="cls-1" d="M331.1,295.9h-9.6v-8.4h8.8c1,0,1.4.6,1.4,1.2h.6v-5.6h-.6c0,.6-.4,1.1-1.4,1.1h-8.8v-5.9h9.3c1.5,0,1.8.3,2.3,1.2l.6-.2-1.2-4.4s-1,.2-1.4.2h-14.9v.6c.8,0,1.3.4,1.3,1.6v19.7c0,1.2-.7,1.6-1.3,1.6v.6h14.6c.6,0,1.3,0,1.7.2l1.2-4.5-.6-.2c-.4.7-.8,1.3-2.1,1.3v-.2h.1Z"/>
          <path class="cls-1" d="M345.5,289.9l-3.4-.8c-1.5-.4-2.2-.7-2.2-1.7s1.1-1.8,3.5-1.8,3.9.8,4.9,2l.6-.2-.7-3.9c-1.3-.2-2.6-.7-5.1-.7-4,0-6.8,1.7-6.8,4.8s1.5,3.9,4,4.5l3.3.8c1.6.4,2.4.8,2.4,2.1s-1.3,2.1-4.4,2.1-4.5-1.3-5.4-2.5l-.7.2.8,4.3c1.3.3,3.2.8,5.4.8,5.5,0,7.7-2,7.7-5.1s-1.8-4.2-4.2-4.8l.2-.2h.1Z"/>
          <path class="cls-1" d="M359.1,296.6c-1.4,0-2.3-.7-2.3-2.6v-8.4h3.8l.5-2.3h-4.3v-4.3h-.5l-5,5.6v.9h1.8v9c0,3.1,1.4,4.9,5,4.9s2.3-.2,2.9-.3l.8-3.4-.5-.2c-.6.7-1.2,1.1-2.2,1.1h0Z"/>
          <path class="cls-1" d="M374.3,293c0,1.8-1.1,4-4.4,4s-2.7-.7-2.7-2,1.1-2.1,3.3-2.7l3.9-1v1.7h0ZM377.8,297v-7.9c0-4.3-2.3-6.4-6.6-6.4s-4.1.4-5.2.7l-.8,3.9.6.2c.6-.7,2-1.8,4.8-1.8s3.8.8,3.8,2.7v.3l-4.3,1.1c-4.6,1.1-6.5,2.8-6.5,5.7s2,4.3,5.7,4.3,4.2-1.1,5.2-2.3c0,.7.3,1.5.4,1.8l4.4-.2v-.6c-.7,0-1.4-.4-1.4-1.6v.2h-.1Z"/>
          <path class="cls-1" d="M388.4,296.6c-1.4,0-2.3-.7-2.3-2.6v-8.4h3.8l.5-2.3h-4.3v-4.3h-.5l-5,5.6v.9h1.8v9c0,3.1,1.4,4.9,5,4.9s2.3-.2,2.9-.3l.8-3.4-.5-.2c-.6.7-1.2,1.1-2.2,1.1h0Z"/>
          <path class="cls-1" d="M396,291.6v-.7c0-2.8,1.8-5.2,4.4-5.2s3.4,1.1,3.7,3.3l-8.1,2.6h0ZM400.4,282.7c-4.3,0-8,3.4-8,8.7s3.8,8.4,8.8,8.4,3.9-.7,5-1.1l.7-3.9-.5-.2c-.7,1.3-2.5,2.2-4.6,2.2s-4.4-.8-5.2-2.7l11.2-3.5c-.3-4.1-2-7.9-7.3-7.9h-.1Z"/>
          <path class="cls-1" d="M416.3,275.6c.8,0,1.3.4,1.3,1.6v19.7c0,1.2-.5,1.6-1.3,1.6v.6h6.6v-.6c-.8,0-1.3-.4-1.3-1.6v-19.7c0-1.2.7-1.6,1.3-1.6v-.6h-6.6v.6Z"/>
          <path class="cls-1" d="M441.6,297v-8.6c0-3.6-2.4-5.7-6-5.7s-4.4,1.4-5.5,2.5h0v-2.5l-4.9.7v.6c.8,0,1.4.5,1.4,1.6v11.5c0,1-.6,1.6-1.4,1.6v.6h6.5v-.6c-.8,0-1.5-.4-1.5-1.6v-8.7c1.1-1.1,2.7-2.5,4.4-2.5s3.4,1.1,3.4,3.7v7.6c0,1-.7,1.6-1.4,1.6v.6h6.5v-.6c-.8,0-1.5-.4-1.5-1.6h0v-.2Z"/>
          <path class="cls-1" d="M455.1,283.9c.6,0,.9.2.9.8s0,.7-.2,1l-3.4,10.6-3.5-10.3s-.3-.9-.3-1.2c0-.5.3-.8.8-.8v-.6h-6v.6c.8,0,1.3.6,1.5,1.4l5,13.8h4.3l5-13.8c.3-1,.8-1.4,1.6-1.4v-.6h-5.7v.6h0Z"/>
          <path class="cls-1" d="M465.2,291.6v-.7c0-2.8,1.8-5.2,4.4-5.2s3.4,1.1,3.7,3.3l-8.1,2.6h0ZM469.5,282.7c-4.3,0-8,3.4-8,8.7s3.8,8.4,8.8,8.4,3.9-.7,5-1.1l.7-3.9-.5-.2c-.7,1.3-2.5,2.2-4.6,2.2s-4.4-.8-5.2-2.7l11.2-3.5c-.3-4.1-2-7.9-7.3-7.9h-.1Z"/>
          <path class="cls-1" d="M488.7,289.9l-3.4-.8c-1.5-.4-2.2-.7-2.2-1.7s1.1-1.8,3.5-1.8,3.9.8,4.9,2l.6-.2-.7-3.9c-1.3-.2-2.6-.7-5.1-.7-4,0-6.8,1.7-6.8,4.8s1.5,3.9,4,4.5l3.3.8c1.6.4,2.4.8,2.4,2.1s-1.3,2.1-4.4,2.1-4.5-1.3-5.4-2.5l-.7.2.8,4.3c1.3.3,3.2.8,5.4.8,5.5,0,7.7-2,7.7-5.1s-1.8-4.2-4.2-4.8l.2-.2h.1Z"/>
          <path class="cls-1" d="M502.2,296.6c-1.4,0-2.3-.7-2.3-2.6v-8.4h3.8l.5-2.3h-4.3v-4.3h-.5l-5,5.6v.9h1.8v9c0,3.1,1.4,4.9,5,4.9s2.3-.2,2.9-.3l.8-3.4-.5-.2c-.6.7-1.2,1.1-2.2,1.1h0Z"/>
          <path class="cls-1" d="M534.2,297v-8.6c0-3.7-2.5-5.7-6-5.7s-4.3,1.1-6.1,2.8c-.9-1.8-2.9-2.8-5.3-2.8s-4.4,1.4-5.5,2.5h0v-2.5l-4.9.7v.6c.8,0,1.4.5,1.4,1.7v11.4c0,1-.7,1.6-1.4,1.6v.6h6.5v-.6c-.8,0-1.5-.5-1.5-1.6v-8.6c1.1-1.1,2.8-2.5,4.4-2.5s3.4,1.1,3.4,3.7v7.6c0,1-.6,1.6-1.4,1.6v.6h6.5v-.6c-.8,0-1.5-.4-1.5-1.6v-8.8c1.3-1.3,2.6-2.4,4.3-2.4s3.4,1.2,3.4,3.8v7.5c0,1-.6,1.6-1.4,1.6v.6h6.5v-.6c-.8,0-1.4-.4-1.4-1.6v-.4Z"/>
          <path class="cls-1" d="M541,291.6v-.7c0-2.8,1.8-5.2,4.4-5.2s3.4,1.1,3.7,3.3l-8.1,2.6h0ZM545.4,282.7c-4.3,0-8,3.4-8,8.7s3.8,8.4,8.8,8.4,3.9-.7,5-1.1l.7-3.9-.5-.2c-.7,1.3-2.5,2.2-4.6,2.2s-4.4-.8-5.2-2.7l11.2-3.5c-.3-4.1-2-7.9-7.3-7.9h-.1Z"/>
          <path class="cls-1" d="M571.1,297v-8.6c0-3.6-2.4-5.7-6-5.7s-4.4,1.4-5.5,2.5h0v-2.5l-4.9.7v.6c.8,0,1.4.5,1.4,1.6v11.5c0,1-.6,1.6-1.4,1.6v.6h6.5v-.6c-.8,0-1.5-.4-1.5-1.6v-8.7c1.1-1.1,2.7-2.5,4.4-2.5s3.4,1.1,3.4,3.7v7.6c0,1-.7,1.6-1.4,1.6v.6h6.5v-.6c-.8,0-1.5-.4-1.5-1.6h0v-.2Z"/>
          <path class="cls-1" d="M581.6,296.6c-1.4,0-2.3-.7-2.3-2.6v-8.4h3.8l.5-2.3h-4.3v-4.3h-.5l-5,5.6v.9h1.8v9c0,3.1,1.4,4.9,5,4.9s2.3-.2,2.9-.3l.8-3.4-.5-.2c-.6.7-1.2,1.1-2.2,1.1h0Z"/>
          <path class="cls-1" d="M611.6,276.7l-6.4,11.1-6.1-11.1c-.3-.6-.6-1.1-.7-1.7h-5.8v.6c.7,0,1.3.5,1.3,1.6v19.8c0,1.1-.4,1.6-1.3,1.6v.6h6.5v-.6c-.8,0-1.4-.3-1.4-1.6v-15.2l6.4,11.6h1.5l6.6-11.6v15.2c0,1.1-.5,1.6-1.3,1.6v.6h6.5v-.6c-.8,0-1.3-.5-1.3-1.6v-19.8c0-1.1.5-1.6,1.3-1.6v-.6h-5.2c0,.6-.3,1.1-.7,1.7h.1Z"/>
          <path class="cls-1" d="M630.6,293c0,1.8-1.1,4-4.4,4s-2.7-.7-2.7-2,1.1-2.1,3.3-2.7l3.9-1v1.7h0ZM634.1,297v-7.9c0-4.3-2.3-6.4-6.6-6.4s-4.1.4-5.2.7l-.8,3.9.6.2c.6-.7,2-1.8,4.8-1.8s3.8.8,3.8,2.7v.3l-4.3,1.1c-4.6,1.1-6.5,2.8-6.5,5.7s2,4.3,5.7,4.3,4.2-1.1,5.2-2.3c0,.7.3,1.5.4,1.8l4.4-.2v-.6c-.7,0-1.4-.4-1.4-1.6v.2h-.1Z"/>
          <path class="cls-1" d="M653.6,297v-8.6c0-3.6-2.4-5.7-6-5.7s-4.4,1.4-5.5,2.5h0v-2.5l-4.9.7v.6c.8,0,1.4.5,1.4,1.6v11.5c0,1-.6,1.6-1.4,1.6v.6h6.5v-.6c-.8,0-1.5-.4-1.5-1.6v-8.7c1.1-1.1,2.7-2.5,4.4-2.5s3.4,1.1,3.4,3.7v7.6c0,1-.7,1.6-1.4,1.6v.6h6.5v-.6c-.8,0-1.5-.4-1.5-1.6h0v-.2Z"/>
          <path class="cls-1" d="M667.6,293c0,1.8-1.1,4-4.4,4s-2.7-.7-2.7-2,1.1-2.1,3.3-2.7l3.9-1v1.7h0ZM671.1,297v-7.9c0-4.3-2.3-6.4-6.6-6.4s-4.1.4-5.2.7l-.8,3.9.6.2c.6-.7,2-1.8,4.8-1.8s3.8.8,3.8,2.7v.3l-4.3,1.1c-4.6,1.1-6.5,2.8-6.5,5.7s2,4.3,5.7,4.3,4.2-1.1,5.2-2.3c0,.7.3,1.5.4,1.8l4.4-.2v-.6c-.7,0-1.4-.4-1.4-1.6v.2h-.1Z"/>
          <path class="cls-1" d="M686.7,294.8c-1,1.1-2.2,1.9-4.1,1.9s-4.6-2-4.6-5.4,2.1-5.5,4.6-5.5,3.4.8,4,1.7v7.3h0ZM688.6,285.2h0c-1-1.1-3.1-2.5-6-2.5-4.7,0-8.1,3.4-8.1,8.4s3.5,8.3,8.1,8.3,3.2-.7,4-1.5h.2v1.7c0,2-1.3,3.2-4.7,3.2s-4.5-1-5.6-2.1l-.4.2.8,4c1.4.4,3.2.7,6.2.7,5.4,0,7.4-2.7,7.4-6.2v-13.8c0-1.1,0-1.7.2-2.3h-.8l-1.1,1.8-.2.2h0Z"/>
          <path class="cls-1" d="M697,291.6v-.7c0-2.8,1.8-5.2,4.4-5.2s3.4,1.1,3.7,3.3l-8.1,2.6h0ZM701.4,282.7c-4.3,0-8,3.4-8,8.7s3.8,8.4,8.8,8.4,3.9-.7,5-1.1l.7-3.9-.5-.2c-.7,1.3-2.5,2.2-4.6,2.2s-4.4-.8-5.2-2.7l11.2-3.5c-.3-4.1-2-7.9-7.3-7.9h-.1Z"/>
          <path class="cls-1" d="M738.4,297v-8.6c0-3.7-2.5-5.7-6-5.7s-4.3,1.1-6.1,2.8c-.9-1.8-2.9-2.8-5.3-2.8s-4.4,1.4-5.5,2.5h0v-2.5l-4.9.7v.6c.8,0,1.4.5,1.4,1.7v11.4c0,1-.7,1.6-1.4,1.6v.6h6.5v-.6c-.8,0-1.5-.5-1.5-1.6v-8.6c1.1-1.1,2.8-2.5,4.4-2.5s3.4,1.1,3.4,3.7v7.6c0,1-.6,1.6-1.4,1.6v.6h6.5v-.6c-.8,0-1.5-.4-1.5-1.6v-8.8c1.3-1.3,2.6-2.4,4.3-2.4s3.4,1.2,3.4,3.8v7.5c0,1-.6,1.6-1.4,1.6v.6h6.5v-.6c-.8,0-1.4-.4-1.4-1.6v-.4Z"/>
          <path class="cls-1" d="M745.2,291.6v-.7c0-2.8,1.8-5.2,4.4-5.2s3.4,1.1,3.7,3.3l-8.1,2.6h0ZM749.5,282.7c-4.3,0-8,3.4-8,8.7s3.8,8.4,8.8,8.4,3.9-.7,5-1.1l.7-3.9-.5-.2c-.7,1.3-2.5,2.2-4.6,2.2s-4.4-.8-5.2-2.7l11.2-3.5c-.3-4.1-2-7.9-7.3-7.9h-.1Z"/>
          <path class="cls-1" d="M775.2,297v-8.6c0-3.6-2.4-5.7-6-5.7s-4.4,1.4-5.5,2.5h0v-2.5l-4.9.7v.6c.8,0,1.4.5,1.4,1.6v11.5c0,1-.6,1.6-1.4,1.6v.6h6.5v-.6c-.8,0-1.5-.4-1.5-1.6v-8.7c1.1-1.1,2.7-2.5,4.4-2.5s3.4,1.1,3.4,3.7v7.6c0,1-.7,1.6-1.4,1.6v.6h6.5v-.6c-.8,0-1.5-.4-1.5-1.6h0v-.2Z"/>
          <path class="cls-1" d="M785.7,296.6c-1.4,0-2.3-.7-2.3-2.6v-8.4h3.8l.5-2.3h-4.3v-4.3h-.5l-5,5.6v.9h1.8v9c0,3.1,1.4,4.9,5,4.9s2.3-.2,2.9-.3l.8-3.4-.5-.2c-.6.7-1.2,1.1-2.2,1.1h0Z"/>
          <path class="cls-1" d="M280.2,244.3c-4.1,0-7-2.5-7-8v-45.9h56.5v45.9c0,6.3-3,8-6.8,8v2.8h33.4v-2.8c-3.8,0-7-1.7-7-8v-100.7c0-5.9,3.6-7.9,7-7.9v-2.8h-33.4v2.8c3.9,0,6.8,1.9,6.8,7.9v38.3h-56.5v-38.3c0-5.7,3.4-7.9,7-7.9v-2.8h-33.4v2.8c3.9,0,6.8,1.7,6.8,7.9v100.6c0,5.9-2.9,8-6.8,8v2.8h33.4v-2.8h0Z"/>
          <path class="cls-1" d="M493.6,236.4c-16.9,0-23.1-6.8-27.4-12.9l-3.2.7,4.3,21.8c6.3,1.7,16.3,4.2,27.4,4.2,27.9,0,39.1-10.5,39.1-25.6s-9.3-21.1-21.2-24.1l-17.4-4.3c-7.5-1.9-11.2-3.9-11.2-8.9s5.4-9.3,17.9-9.3,19.5,4,24.8,9.8l3-.7-3.4-20.1c-6.5-1.4-13.3-3.1-25.9-3.1-20.4,0-34.3,8.9-34.3,24.1s7.9,19.5,20.4,22.7l16.8,4.2c8.1,2.1,12.3,4.2,12.3,10.7s-6.8,11-22,11v.2-.4Z"/>
          <path class="cls-1" d="M606.6,199.2v37.2c0,5.4-3.4,7.9-7.3,7.9v2.8h33.1v-2.8c-4.1,0-7.5-2.1-7.5-7.9v-43.8c0-17.3-11.4-28.8-30.4-28.8s-22.2,7.1-27.2,12h-.5v-53.8l-25.5,2.8v2.8c4.4,0,7.3,2.5,7.3,8.7v100c0,5.2-3.2,7.9-7.3,7.9v2.8h33.1v-2.8c-4.1,0-7.5-2.5-7.5-7.9v-44.2c5.5-5.7,13.6-12.9,22.5-12.9s17.4,5.7,17.4,19.9h-.2,0Z"/>
          <path class="cls-1" d="M771.7,215.6c0,9.3-5.7,20.2-22.5,20.2s-13.8-3.1-13.8-10.3,5.4-10.8,16.6-13.8l19.6-5.1v8.9h.1ZM789.6,236.4v-40.2c0-21.8-11.4-32.4-33.7-32.4s-20.7,2.3-26.4,3.5l-3.9,19.5,2.9.9c3-3.3,10.3-9.1,24.1-9.1s19.3,4.2,19.3,13.8v1.7l-21.8,5.2c-23.2,5.6-32.9,14.3-32.9,28.6s10.3,22.1,29.1,22.1,21.4-5.6,26.3-11.6h.3c.3,3.9,1.4,7.5,1.9,9.3l22.2-.9v-2.8c-3.2,0-7.3-2.3-7.3-7.9v.2h0Z"/>
          <path class="cls-1" d="M427.7,215.6c0,9.3-5.7,20.2-22.5,20.2s-13.8-3.1-13.8-10.3,5.4-10.8,16.6-13.8l19.6-5.1v8.9h0ZM445.5,236.4v-40.2c0-21.8-11.4-32.4-33.7-32.4s-20.7,2.3-26.4,3.5l-3.9,19.5,2.9.9c3-3.3,10.3-9.1,24.1-9.1s19.3,4.2,19.3,13.8v1.7l-21.8,5.2c-23.2,5.6-32.9,14.3-32.9,28.6s10.3,22.1,29.1,22.1,21.4-5.6,26.3-11.6h.3c.3,3.9,1.4,7.5,1.9,9.3l22.2-.9v-2.8c-3.2,0-7.3-2.3-7.3-7.9v.2h-.1Z"/>
          <path class="cls-1" d="M866.2,224.7c-5,5.9-11.1,9.4-20.7,9.4s-23.4-9.8-23.4-27.4,10.6-27.9,23.6-27.9,16.8,4,20.6,8.7v37.1h0ZM881.4,166.9l-5.4,9.3h-.3c-5.2-5.6-15.7-12.4-30.4-12.4-23.7,0-41.5,17.5-41.5,42.9s17.9,42,41.3,42,16.1-3.7,20.4-7.7h.7v8.9c0,10.5-6.6,16.4-23.9,16.4s-23.1-5.1-28.4-10.7l-2.3.9,4.1,20.4c7.1,1.9,16.3,3.5,31.6,3.5,27.4,0,37.5-13.6,37.5-31.5v-70.3c0-5.7.2-8.9.9-11.7h-4.3,0Z"/>
          <path class="cls-1" d="M686.5,236c-7.6,0-12.3-3.4-12.3-14.2v-45.6h20.4l2.7-12.3h-23.1v-22.9h-2.7l-26.8,30.2v5h9.9v48.7c0,16.8,7.8,26.6,26.9,26.6s12.4-.7,15.4-1.6l4-18.8-2.9-.7c-3,3.5-6.3,5.7-11.8,5.7h.3Z"/>
        </g>
      </g>
    </g>
  </g>
</svg>